<svg xmlns="http://www.w3.org/2000/svg" viewBox="0 0 600 600"><defs><style>.cls-1,.cls-2{fill:#004aad;}.cls-1{stroke:#004aad;}.cls-1,.cls-3{stroke-miterlimit:10;stroke-width:2.83px;}.cls-3{fill:#fff;stroke:#fff;}</style></defs><g id="Default"><polygon class="cls-1" points="437.78 110.37 332.17 110.37 279.37 201.83 332.17 293.29 437.78 293.29 490.59 201.83 437.78 110.37"/><path class="cls-1" d="M451.31,297.39,502.93,208a12.33,12.33,0,0,0,0-12.3l-55.17-95.56a7.1,7.1,0,0,0-6.14-3.54H328.26a7.07,7.07,0,0,0-6.13,3.54l-53.13,92a5.22,5.22,0,0,1-4.52,2.61H158.38a7.1,7.1,0,0,0-6.14,3.54L97.07,293.85a12.33,12.33,0,0,0,0,12.3l55.17,95.56a7.1,7.1,0,0,0,6.14,3.54h106.1a5.22,5.22,0,0,1,4.52,2.61l53.13,92a7.07,7.07,0,0,0,6.13,3.54H441.62a7.1,7.1,0,0,0,6.14-3.54l55.17-95.56a12.33,12.33,0,0,0,0-12.3l-51.62-89.41A5.18,5.18,0,0,1,451.31,297.39ZM335.37,110.75h99.15a5.2,5.2,0,0,1,4.51,2.61l49.58,85.86a5.23,5.23,0,0,1,0,5.22L439,290.31a5.21,5.21,0,0,1-4.51,2.6h-99a5.21,5.21,0,0,1-4.52-2.6l-49.65-86a5.23,5.23,0,0,1,0-5.22l49.5-85.73A5.2,5.2,0,0,1,335.37,110.75Zm-224,186.64L161,211.53a5.2,5.2,0,0,1,4.51-2.61h99a5.2,5.2,0,0,1,4.52,2.61l49.57,85.86a5.18,5.18,0,0,1,0,5.22L269,388.47a5.2,5.2,0,0,1-4.52,2.61h-99a5.2,5.2,0,0,1-4.51-2.61l-49.58-85.86A5.23,5.23,0,0,1,111.39,297.39ZM434.52,489.25H335.37a5.2,5.2,0,0,1-4.52-2.61l-49.5-85.73a5.23,5.23,0,0,1,0-5.22l49.65-86a5.21,5.21,0,0,1,4.52-2.6h99a5.21,5.21,0,0,1,4.51,2.6l49.58,85.87a5.23,5.23,0,0,1,0,5.22L439,486.64A5.2,5.2,0,0,1,434.52,489.25Z"/><path class="cls-1" d="M254.9,355.9h-22V310.2H190.08v45.7h-22V249.26h22v43.21h42.85V249.26h22Z"/><path class="cls-1" d="M423.18,440.75q-5.93,7.11-16.77,11a70.29,70.29,0,0,1-24,3.92q-13.84,0-24.28-6A40.3,40.3,0,0,1,342,432.11q-5.69-11.5-5.83-27v-7.25q0-16,5.39-27.65a39.78,39.78,0,0,1,15.52-17.87q10.16-6.19,23.77-6.19,19,0,29.66,9t12.67,26.34H401.8q-1.47-9.17-6.48-13.41t-13.81-4.25q-11.2,0-17.07,8.43t-5.93,25.05v6.81q0,16.77,6.37,25.34T383.56,438q12.38,0,17.65-5.27V414.38h-20V398.19h42Z"/><path class="cls-2" d="M189.29,445.84h-21v-4l9.9-10.05a23.2,23.2,0,0,0,3-3.71,5.65,5.65,0,0,0,1-3,4.3,4.3,0,0,0-1-3.05,3.82,3.82,0,0,0-2.94-1.11,4.1,4.1,0,0,0-3.25,1.35,5.18,5.18,0,0,0-1.19,3.55H167.7A9.18,9.18,0,0,1,169,421a9.29,9.29,0,0,1,3.77-3.46,12,12,0,0,1,5.53-1.25q4.74,0,7.35,2.16a7.47,7.47,0,0,1,2.62,6.11,9.47,9.47,0,0,1-1.18,4.4,24.23,24.23,0,0,1-4,5.23l-7,7h13.16Z"/><path class="cls-2" d="M213.61,433.79q0,6-2.63,9.25c-1.75,2.14-4.32,3.2-7.69,3.2s-5.89-1-7.66-3.14-2.67-5.1-2.71-9v-5.37q0-6.11,2.66-9.27c1.77-2.11,4.33-3.16,7.66-3.16s5.89,1,7.66,3.13,2.67,5.09,2.71,9Zm-6.08-5.9a10.17,10.17,0,0,0-1-5.28,3.55,3.55,0,0,0-3.25-1.65,3.49,3.49,0,0,0-3.16,1.57,9.58,9.58,0,0,0-1.08,4.92v7.09a10.72,10.72,0,0,0,1,5.3,3.51,3.51,0,0,0,3.27,1.74,3.45,3.45,0,0,0,3.21-1.67,10.46,10.46,0,0,0,1-5.09Z"/><path class="cls-2" d="M238.69,445.84h-21v-4l9.9-10.05a23.92,23.92,0,0,0,3-3.71,5.72,5.72,0,0,0,1-3,4.3,4.3,0,0,0-1-3.05,3.81,3.81,0,0,0-2.94-1.11,4.11,4.11,0,0,0-3.25,1.35,5.18,5.18,0,0,0-1.19,3.55H217.1a9.16,9.16,0,0,1,5.11-8.32,11.93,11.93,0,0,1,5.52-1.25q4.74,0,7.35,2.16a7.47,7.47,0,0,1,2.62,6.11,9.35,9.35,0,0,1-1.18,4.4,24.46,24.46,0,0,1-4,5.23l-7,7h13.16Z"/><path class="cls-2" d="M263.39,445.84h-21v-4l9.9-10.05a23.92,23.92,0,0,0,3-3.71,5.72,5.72,0,0,0,1-3,4.3,4.3,0,0,0-1-3.05,3.79,3.79,0,0,0-2.94-1.11,4.11,4.11,0,0,0-3.25,1.35,5.18,5.18,0,0,0-1.19,3.55H241.8a9.16,9.16,0,0,1,5.11-8.32,12,12,0,0,1,5.53-1.25q4.73,0,7.34,2.16a7.47,7.47,0,0,1,2.62,6.11,9.35,9.35,0,0,1-1.18,4.4,24.46,24.46,0,0,1-4,5.23l-7,7h13.16Z"/><path class="cls-3" d="M406,210.24h12.09V227.3H406v23.08H384.87V227.3H341.14L340.19,214l44.46-70.24H406Zm-44.75,0h23.59V172.59L383.48,175Z"/></g></svg>